<svg id="SvgjsSvg1059" xmlns="http://www.w3.org/2000/svg" version="1.1" xmlns:xlink="http://www.w3.org/1999/xlink" xmlns:svgjs="http://svgjs.com/svgjs" width="27" height="38" viewBox="0 0 27 38"><title>Shape 9</title><desc>Created with Avocode.</desc><defs id="SvgjsDefs1060"></defs><path id="SvgjsPath1061" d="M1351.97 3209.71C1349.1200000000001 3212.87 1344.97 3214 1342.03 3214L1341.95 3214C1338.91 3213.98 1334.68 3212.82 1331.8400000000001 3209.6C1329.5500000000002 3207 1328.6100000000001 3203.46 1329.15 3199.38C1329.5900000000001 3195.9900000000002 1331.0600000000002 3192.73 1332.3600000000001 3189.86C1332.72 3189.06 1333.0600000000002 3188.31 1333.3500000000001 3187.6C1334.0600000000002 3185.9 1334.63 3184.24 1335.13 3182.77C1336.0700000000002 3180.03 1336.75 3178.04 1337.8600000000001 3177.09C1338.7 3176.36 1339.6100000000001 3176 1340.5500000000002 3176C1341.0500000000002 3176 1341.5500000000002 3176.1 1342.0200000000002 3176.31C1342.5000000000002 3176.1 1343.0000000000002 3176 1343.4900000000002 3176C1344.4300000000003 3176 1345.3400000000001 3176.36 1346.1800000000003 3177.09C1347.2700000000002 3178.03 1347.9400000000003 3179.9900000000002 1348.8700000000003 3182.7200000000003C1349.3900000000003 3184.2200000000003 1349.9700000000003 3185.9300000000003 1350.6900000000003 3187.63C1351.0000000000002 3188.37 1351.3600000000004 3189.1400000000003 1351.7400000000002 3189.96C1353.0500000000002 3192.78 1354.5300000000002 3195.9700000000003 1354.9000000000003 3199.41C1355.3400000000004 3203.5299999999997 1354.3300000000004 3207.0899999999997 1351.9700000000003 3209.71ZM1342 3190.42C1338.64 3190.42 1335.92 3195.37 1335.92 3200.13C1335.92 3204.9 1338.64 3207.67 1342 3207.67C1345.36 3207.67 1348.09 3204.9 1348.09 3200.13C1348.09 3195.37 1345.36 3190.42 1342 3190.42ZM1352.38 3199.68C1352.0500000000002 3196.66 1350.66 3193.66 1349.43 3191.02C1349.04 3190.18 1348.68 3189.39 1348.3500000000001 3188.61C1347.5900000000001 3186.83 1347.0000000000002 3185.08 1346.47 3183.53C1345.79 3181.55 1345.09 3179.4900000000002 1344.53 3179.01C1343.87 3178.4500000000003 1343.35 3178.38 1342.75 3178.7900000000004L1342.02 3179.3000000000006L1341.3 3178.7900000000004C1341.04 3178.6200000000003 1340.79 3178.5200000000004 1340.55 3178.5200000000004C1340.24 3178.5200000000004 1339.8899999999999 3178.6900000000005 1339.52 3179.01C1338.93 3179.51 1338.22 3181.5800000000004 1337.54 3183.59C1337.02 3185.09 1336.44 3186.8 1335.7 3188.57C1335.39 3189.31 1335.04 3190.0800000000004 1334.68 3190.8900000000003C1333.45 3193.61 1332.0600000000002 3196.6900000000005 1331.67 3199.7100000000005C1331.22 3203.0900000000006 1331.92 3205.8600000000006 1333.75 3207.9400000000005C1336.03 3210.5200000000004 1339.56 3211.4500000000007 1341.94 3211.4700000000007L1342.1000000000001 3211.4700000000007C1344.38 3211.4500000000007 1347.8100000000002 3210.540000000001 1350.0800000000002 3208.020000000001C1351.9700000000003 3205.920000000001 1352.7500000000002 3203.120000000001 1352.38 3199.6800000000007Z " fill="#ffffff" fill-opacity="1" transform="matrix(1,0,0,1,-1329,-3176)"></path></svg>