<svg id="SvgjsSvg1041" xmlns="http://www.w3.org/2000/svg" version="1.1" xmlns:xlink="http://www.w3.org/1999/xlink" xmlns:svgjs="http://svgjs.com/svgjs" width="44" height="44" viewBox="0 0 44 44"><title>Shape 10</title><desc>Created with Avocode.</desc><defs id="SvgjsDefs1042"></defs><path id="SvgjsPath1043" d="M1149.55 1002L1116.82 1002C1113.81 1002 1111.36 1004.46 1111.36 1007.5L1111.36 1029.5C1111.36 1032.54 1113.81 1035 1116.82 1035L1127.73 1035L1124.09 1046L1140.4499999999998 1035L1149.5499999999997 1035C1152.5599999999997 1035 1154.9999999999998 1032.54 1154.9999999999998 1029.5L1154.9999999999998 1007.5C1154.9999999999998 1004.46 1152.5599999999997 1002 1149.5499999999997 1002ZM1147.73 1018.5C1147.73 1020.53 1146.1 1022.17 1144.09 1022.17C1142.08 1022.17 1140.4499999999998 1020.53 1140.4499999999998 1018.5C1140.4499999999998 1016.48 1142.08 1014.83 1144.09 1014.83C1146.1 1014.83 1147.73 1016.48 1147.73 1018.5ZM1125.91 1018.5C1125.91 1020.53 1124.28 1022.17 1122.27 1022.17C1120.26 1022.17 1118.6399999999999 1020.53 1118.6399999999999 1018.5C1118.6399999999999 1016.48 1120.2599999999998 1014.83 1122.27 1014.83C1124.28 1014.83 1125.91 1016.48 1125.91 1018.5ZM1136.82 1018.5C1136.82 1020.53 1135.1899999999998 1022.17 1133.1799999999998 1022.17C1131.1699999999998 1022.17 1129.5499999999997 1020.53 1129.5499999999997 1018.5C1129.5499999999997 1016.48 1131.1699999999996 1014.83 1133.1799999999998 1014.83C1135.1899999999998 1014.83 1136.82 1016.48 1136.82 1018.5ZM1135 1018.5C1135 1017.49 1134.19 1016.67 1133.18 1016.67C1132.18 1016.67 1131.3600000000001 1017.49 1131.3600000000001 1018.5C1131.3600000000001 1019.51 1132.18 1020.33 1133.18 1020.33C1134.19 1020.33 1135 1019.51 1135 1018.5ZM1145.91 1018.5C1145.91 1017.49 1145.0900000000001 1016.67 1144.0900000000001 1016.67C1143.0900000000001 1016.67 1142.2700000000002 1017.49 1142.2700000000002 1018.5C1142.2700000000002 1019.51 1143.0900000000001 1020.33 1144.0900000000001 1020.33C1145.0900000000001 1020.33 1145.91 1019.51 1145.91 1018.5ZM1124.09 1018.5C1124.09 1017.49 1123.28 1016.67 1122.27 1016.67C1121.27 1016.67 1120.45 1017.49 1120.45 1018.5C1120.45 1019.51 1121.27 1020.33 1122.27 1020.33C1123.28 1020.33 1124.09 1019.51 1124.09 1018.5ZM1153.18 1029.5C1153.18 1031.53 1151.55 1033.17 1149.55 1033.17L1139.55 1033.17L1126.82 1042.3300000000002L1130.45 1033.17L1116.82 1033.17C1114.81 1033.17 1113.1799999999998 1031.53 1113.1799999999998 1029.5L1113.1799999999998 1007.5C1113.1799999999998 1005.48 1114.81 1003.83 1116.82 1003.83L1149.55 1003.83C1151.55 1003.83 1153.18 1005.48 1153.18 1007.5Z " fill="#fff" fill-opacity="1" transform="matrix(1,0,0,1,-1111,-1002)"></path></svg>