<svg id="SvgjsSvg1038" xmlns="http://www.w3.org/2000/svg" version="1.1" xmlns:xlink="http://www.w3.org/1999/xlink" xmlns:svgjs="http://svgjs.com/svgjs" width="47" height="33" viewBox="0 0 47 33"><title>Shape 11</title><desc>Created with Avocode.</desc><defs id="SvgjsDefs1039"></defs><path id="SvgjsPath1040" d="M856.213 1025.49C856.4839999999999 1024.48 856.6429999999999 1023.42 856.6429999999999 1022.32C856.6429999999999 1015.49 851.006 1009.95 844.0539999999999 1009.95C842.2669999999998 1009.95 840.5689999999998 1010.32 839.0289999999999 1010.98C837.4839999999999 1007.46 833.9299999999998 1005 829.7859999999998 1005C824.2229999999998 1005 819.7139999999998 1009.43 819.7139999999998 1014.9C819.7139999999998 1015.27 819.7849999999999 1015.62 819.8249999999998 1015.97C815.7989999999999 1017.8100000000001 812.9999999999998 1021.8000000000001 812.9999999999998 1026.45C812.9999999999998 1032.8300000000002 818.2609999999997 1038 824.7499999999998 1038L853.2859999999998 1038C856.9939999999998 1038 859.9999999999999 1035.04 859.9999999999999 1031.4C859.9999999999999 1028.7900000000002 858.4479999999999 1026.5600000000002 856.2129999999999 1025.49ZM853.286 1036.35L824.75 1036.35C819.197 1036.35 814.679 1031.9099999999999 814.679 1026.4499999999998C814.679 1022.6099999999998 816.975 1019.0899999999998 820.53 1017.4699999999998L821.624 1016.9699999999998L821.493 1015.7999999999998C821.479 1015.6699999999998 821.4630000000001 1015.5499999999998 821.446 1015.4299999999998C821.422 1015.2499999999999 821.393 1015.0799999999998 821.393 1014.8999999999999C821.393 1010.3499999999999 825.158 1006.6499999999999 829.7860000000001 1006.6499999999999C833.134 1006.6499999999999 836.158 1008.6099999999999 837.488 1011.6399999999999L838.1560000000001 1013.1599999999999L839.7 1012.4899999999999C841.0840000000001 1011.8999999999999 842.5490000000001 1011.5999999999999 844.0540000000001 1011.5999999999999C850.07 1011.5999999999999 854.964 1016.4099999999999 854.964 1022.3199999999999C854.964 1023.2199999999999 854.8380000000001 1024.1399999999999 854.59 1025.06L854.238 1026.37L855.4770000000001 1026.9699999999998C857.2310000000001 1027.8099999999997 858.3210000000001 1029.5099999999998 858.3210000000001 1031.3999999999999C858.3210000000001 1034.1299999999999 856.0630000000001 1036.35 853.2860000000002 1036.35Z " fill="#fff" fill-opacity="1" transform="matrix(1,0,0,1,-813,-1005)"></path></svg>