<svg id="SvgjsSvg1044" xmlns="http://www.w3.org/2000/svg" version="1.1" xmlns:xlink="http://www.w3.org/1999/xlink" xmlns:svgjs="http://svgjs.com/svgjs" width="15" height="24" viewBox="0 0 15 24"><title>Shape 9</title><desc>Created with Avocode.</desc><defs id="SvgjsDefs1045"><clipPath id="SvgjsClipPath1049"><path id="SvgjsPath1048" d="M411 1506.86C411 1510.81 407.642 1514.01 403.5 1514.01C399.358 1514.01 396 1510.81 396 1506.86C396 1502.9199999999998 403.5 1491 403.5 1491C403.5 1491 411 1502.92 411 1506.86Z " fill="#ffffff"></path></clipPath></defs><path id="SvgjsPath1046" d="M411 1506.86C411 1510.81 407.642 1514.01 403.5 1514.01C399.358 1514.01 396 1510.81 396 1506.86C396 1502.9199999999998 403.5 1491 403.5 1491C403.5 1491 411 1502.92 411 1506.86Z " fill="#ffffff" fill-opacity="0" transform="matrix(1,0,0,1,-396,-1491)"></path><path id="SvgjsPath1047" d="M411 1506.86C411 1510.81 407.642 1514.01 403.5 1514.01C399.358 1514.01 396 1510.81 396 1506.86C396 1502.9199999999998 403.5 1491 403.5 1491C403.5 1491 411 1502.92 411 1506.86Z " fill-opacity="0" fill="#ffffff" stroke-dasharray="0" stroke-linejoin="round" stroke-linecap="round" stroke-opacity="1" stroke="#e3e9ea" stroke-miterlimit="50" stroke-width="6" clip-path="url(&quot;#SvgjsClipPath1049&quot;)" transform="matrix(1,0,0,1,-396,-1491)"></path></svg>