<svg id="SvgjsSvg1014" xmlns="http://www.w3.org/2000/svg" version="1.1" xmlns:xlink="http://www.w3.org/1999/xlink" xmlns:svgjs="http://svgjs.com/svgjs" width="19" height="33" viewBox="0 0 19 33"><title>Shape 9</title><desc>Created with Avocode.</desc><defs id="SvgjsDefs1015"><clipPath id="SvgjsClipPath1019"><path id="SvgjsPath1018" d="M1348 1700.38C1348 1705.7 1343.75 1710.0100000000002 1338.5 1710.0100000000002C1333.25 1710.0100000000002 1329 1705.7000000000003 1329 1700.38C1329 1695.0700000000002 1338.5 1678.99 1338.5 1678.99C1338.5 1678.99 1348 1695.07 1348 1700.38Z " fill="#ffffff"></path></clipPath></defs><path id="SvgjsPath1016" d="M1348 1700.38C1348 1705.7 1343.75 1710.0100000000002 1338.5 1710.0100000000002C1333.25 1710.0100000000002 1329 1705.7000000000003 1329 1700.38C1329 1695.0700000000002 1338.5 1678.99 1338.5 1678.99C1338.5 1678.99 1348 1695.07 1348 1700.38Z " fill="#ffffff" fill-opacity="0" transform="matrix(1,0,0,1,-1329,-1678)"></path><path id="SvgjsPath1017" d="M1348 1700.38C1348 1705.7 1343.75 1710.0100000000002 1338.5 1710.0100000000002C1333.25 1710.0100000000002 1329 1705.7000000000003 1329 1700.38C1329 1695.0700000000002 1338.5 1678.99 1338.5 1678.99C1338.5 1678.99 1348 1695.07 1348 1700.38Z " fill-opacity="0" fill="#ffffff" stroke-dasharray="0" stroke-linejoin="round" stroke-linecap="round" stroke-opacity="1" stroke="#fd634e" stroke-miterlimit="50" stroke-width="8" clip-path="url(&quot;#SvgjsClipPath1019&quot;)" transform="matrix(1,0,0,1,-1329,-1678)"></path></svg>