<svg id="SvgjsSvg1032" xmlns="http://www.w3.org/2000/svg" version="1.1" xmlns:xlink="http://www.w3.org/1999/xlink" xmlns:svgjs="http://svgjs.com/svgjs" width="44" height="41" viewBox="0 0 44 41"><title>Shape 7</title><desc>Created with Avocode.</desc><defs id="SvgjsDefs1033"></defs><path id="SvgjsPath1034" d="M254 1007.5L217.636 1007.5C215.628 1007.5 214 1009.14 214 1011.17L214 1038.67C214 1040.69 215.628 1042.3300000000002 217.636 1042.3300000000002L254 1042.3300000000002C256.008 1042.3300000000002 257.636 1040.69 257.636 1038.67L257.636 1011.1700000000001C257.636 1009.1400000000001 256.00800000000004 1007.5000000000001 254.00000000000003 1007.5000000000001ZM255.818 1038.67C255.818 1039.68 255.00400000000002 1040.5 254 1040.5L217.636 1040.5C216.632 1040.5 215.81799999999998 1039.68 215.81799999999998 1038.67L215.81799999999998 1031.3300000000002L255.81799999999998 1031.3300000000002ZM255.818 1029.5L215.818 1029.5L215.818 1020.33L255.818 1020.33ZM255.818 1018.5L215.818 1018.5L215.818 1011.17C215.818 1010.15 216.632 1009.3299999999999 217.63600000000002 1009.3299999999999L254.00000000000003 1009.3299999999999C255.00400000000002 1009.3299999999999 255.81800000000004 1010.15 255.81800000000004 1011.17ZM230.364 1005.67L228.54500000000002 1005.67C228.54500000000002 1003.64 230.174 1002 232.18200000000002 1002L239.455 1002C241.46300000000002 1002 243.091 1003.64 243.091 1005.67L241.273 1005.67C241.273 1004.65 240.459 1003.8299999999999 239.45499999999998 1003.8299999999999L232.182 1003.8299999999999C231.178 1003.8299999999999 230.36399999999998 1004.65 230.36399999999998 1005.67Z " fill="#fff" fill-opacity="1" transform="matrix(1,0,0,1,-214,-1002)"></path></svg>