<svg id="SvgjsSvg1056" xmlns="http://www.w3.org/2000/svg" version="1.1" xmlns:xlink="http://www.w3.org/1999/xlink" xmlns:svgjs="http://svgjs.com/svgjs" width="32" height="38" viewBox="0 0 32 38"><title>Shape 8</title><desc>Created with Avocode.</desc><defs id="SvgjsDefs1057"></defs><path id="SvgjsPath1058" d="M938.031 3185.22C936.318 3183.16 933.9419999999999 3182.06 931.161 3182.06C931.0179999999999 3182.06 930.877 3182.07 930.7349999999999 3182.08C934.8589999999999 3180.2999999999997 935.2109999999999 3176.95 935.2109999999999 3176.95C929.805 3176.33 927.3519999999999 3179.0099999999998 926.2819999999999 3181.04C926.0889999999999 3179.14 925.5569999999999 3176.87 924.247 3175L922.161 3176.46C923.034 3177.71 923.4649999999999 3179.25 923.6659999999999 3180.65C922.4929999999999 3178.6800000000003 920.0189999999999 3176.37 914.957 3176.9500000000003C914.957 3176.9500000000003 915.31 3180.3100000000004 919.452 3182.09C919.248 3182.08 919.045 3182.06 918.838 3182.06C916.058 3182.06 913.682 3183.16 911.9689999999999 3185.22C907.5329999999999 3190.58 908.098 3197.72 913.5179999999999 3204.81C915.2389999999999 3207.06 916.8659999999999 3208.86 917.1149999999999 3209.14C917.4839999999999 3209.6 920.3649999999999 3213 924.5439999999999 3213C924.6369999999998 3213 924.7309999999999 3213 924.8239999999998 3212.99L925.1759999999998 3212.99C925.2689999999998 3213 925.3629999999998 3213 925.4559999999998 3213C929.6359999999997 3213 932.5169999999998 3209.6 932.8859999999997 3209.14C933.1339999999998 3208.8599999999997 934.7609999999997 3207.06 936.4819999999997 3204.81C941.9019999999997 3197.72 942.4669999999998 3190.58 938.0309999999997 3185.22ZM918.717 3204.16C918.447 3205.0299999999997 917.757 3205.97 917.757 3205.97C917.757 3205.97 917.06 3205.0099999999998 916.799 3204.14C916.578 3203.4 916.9789999999999 3202.45 917.757 3202.45C918.5329999999999 3202.45 918.9509999999999 3203.41 918.717 3204.16ZM918.74 3193.95C918.469 3194.8199999999997 917.779 3195.7599999999998 917.779 3195.7599999999998C917.779 3195.7599999999998 917.083 3194.7999999999997 916.822 3193.93C916.601 3193.19 917.002 3192.24 917.779 3192.24C918.556 3192.24 918.974 3193.2 918.74 3193.95ZM929.443 3199.27C929.173 3200.14 928.482 3201.08 928.482 3201.08C928.482 3201.08 927.786 3200.12 927.525 3199.25C927.305 3198.51 927.7049999999999 3197.56 928.482 3197.56C929.259 3197.56 929.677 3198.52 929.443 3199.27ZM918.307 3188.09C918.087 3187.3500000000004 918.488 3186.4 919.265 3186.4C920.0409999999999 3186.4 920.459 3187.36 920.225 3188.11C919.955 3188.98 919.265 3189.92 919.265 3189.92C919.265 3189.92 918.568 3188.96 918.307 3188.09ZM932.202 3204.78C931.931 3205.65 931.242 3206.5800000000004 931.242 3206.5800000000004C931.242 3206.5800000000004 930.545 3205.6300000000006 930.284 3204.7500000000005C930.063 3204.0100000000007 930.4639999999999 3203.0700000000006 931.242 3203.0700000000006C932.0179999999999 3203.0700000000006 932.4359999999999 3204.0300000000007 932.202 3204.7800000000007ZM932.566 3194.2C932.2950000000001 3195.06 931.605 3196 931.605 3196C931.605 3196 930.909 3195.04 930.648 3194.17C930.427 3193.4300000000003 930.828 3192.4900000000002 931.605 3192.4900000000002C932.3820000000001 3192.4900000000002 932.8000000000001 3193.4500000000003 932.566 3194.2000000000003ZM913.625 3189.69C914.402 3189.69 914.82 3190.65 914.586 3191.4C914.316 3192.27 913.625 3193.2000000000003 913.625 3193.2000000000003C913.625 3193.2000000000003 912.928 3192.2500000000005 912.668 3191.3700000000003C912.447 3190.6300000000006 912.848 3189.6900000000005 913.625 3189.6900000000005ZM915.223 3199.09C914.952 3199.96 914.262 3200.8900000000003 914.262 3200.8900000000003C914.262 3200.8900000000003 913.5659999999999 3199.9400000000005 913.305 3199.07C913.084 3198.3300000000004 913.4849999999999 3197.38 914.262 3197.38C915.039 3197.38 915.457 3198.34 915.223 3199.09ZM928.018 3207.88C927.7470000000001 3208.75 927.057 3209.6800000000003 927.057 3209.6800000000003C927.057 3209.6800000000003 926.361 3208.7300000000005 926.1 3207.8500000000004C925.879 3207.1100000000006 926.28 3206.1700000000005 927.057 3206.1700000000005C927.8340000000001 3206.1700000000005 928.2520000000001 3207.1300000000006 928.018 3207.8800000000006ZM919.566 3199.54C919.345 3198.8 919.746 3197.86 920.523 3197.86C921.3000000000001 3197.86 921.7180000000001 3198.82 921.484 3199.57C921.214 3200.44 920.523 3201.3700000000003 920.523 3201.3700000000003C920.523 3201.3700000000003 919.827 3200.4200000000005 919.566 3199.5400000000004ZM924.298 3194.16C925.075 3194.16 925.492 3195.12 925.259 3195.87C924.988 3196.74 924.298 3197.67 924.298 3197.67C924.298 3197.67 923.601 3196.7200000000003 923.341 3195.84C923.12 3195.1000000000004 923.52 3194.1600000000003 924.298 3194.1600000000003ZM937.084 3199.06C936.813 3199.93 936.1229999999999 3200.86 936.1229999999999 3200.86C936.1229999999999 3200.86 935.4259999999999 3199.9100000000003 935.1659999999999 3199.03C934.9449999999999 3198.2900000000004 935.3449999999999 3197.3500000000004 936.1229999999999 3197.3500000000004C936.9 3197.3500000000004 937.3169999999999 3198.3100000000004 937.084 3199.0600000000004ZM925.35 3203.53C925.0790000000001 3204.4 924.389 3205.3300000000004 924.389 3205.3300000000004C924.389 3205.3300000000004 923.692 3204.3800000000006 923.432 3203.5000000000005C923.211 3202.7700000000004 923.611 3201.8200000000006 924.389 3201.8200000000006C925.166 3201.8200000000006 925.583 3202.7800000000007 925.35 3203.5300000000007ZM925.956 3189.39C925.686 3190.2599999999998 924.995 3191.19 924.995 3191.19C924.995 3191.19 924.299 3190.2400000000002 924.038 3189.36C923.818 3188.6200000000003 924.218 3187.6800000000003 924.995 3187.6800000000003C925.772 3187.6800000000003 926.19 3188.6400000000003 925.956 3189.3900000000003ZM930.453 3186.04C931.2289999999999 3186.04 931.6469999999999 3187 931.413 3187.75C931.143 3188.62 930.453 3189.55 930.453 3189.55C930.453 3189.55 929.756 3188.6000000000004 929.495 3187.7200000000003C929.275 3186.9800000000005 929.676 3186.0400000000004 930.453 3186.0400000000004ZM922.863 3208.28C922.5930000000001 3209.1400000000003 921.902 3210.0800000000004 921.902 3210.0800000000004C921.902 3210.0800000000004 921.206 3209.1200000000003 920.945 3208.2500000000005C920.725 3207.5100000000007 921.1260000000001 3206.5700000000006 921.902 3206.5700000000006C922.6790000000001 3206.5700000000006 923.0970000000001 3207.5300000000007 922.863 3208.2800000000007ZM937.417 3191.4C937.147 3192.27 936.456 3193.2000000000003 936.456 3193.2000000000003C936.456 3193.2000000000003 935.76 3192.2500000000005 935.499 3191.3700000000003C935.279 3190.6300000000006 935.679 3189.6900000000005 936.456 3189.6900000000005C937.2330000000001 3189.6900000000005 937.6510000000001 3190.6500000000005 937.417 3191.4000000000005Z " fill="#e3e9ea" fill-opacity="1" transform="matrix(1,0,0,1,-909,-3175)"></path></svg>