<svg id="SvgjsSvg1050" xmlns="http://www.w3.org/2000/svg" version="1.1" xmlns:xlink="http://www.w3.org/1999/xlink" xmlns:svgjs="http://svgjs.com/svgjs" width="19" height="19" viewBox="0 0 19 19"><title>Shape 13</title><desc>Created with Avocode.</desc><defs id="SvgjsDefs1051"></defs><path id="SvgjsPath1052" d="M1330.98 2216.66C1330.98 2216.69 1330.99 2216.72 1330.99 2216.7599999999998C1330.99 2216.7599999999998 1330.99 2216.77 1330.99 2216.7799999999997C1331 2216.81 1331 2216.8399999999997 1331 2216.8799999999997C1331 2216.8799999999997 1331 2216.89 1331 2216.8999999999996C1331 2217.1899999999996 1330.89 2217.4599999999996 1330.72 2217.6699999999996L1323.99 2225.5799999999995C1323.77 2225.8399999999997 1323.45 2225.9999999999995 1323.08 2225.9999999999995C1323.05 2225.9999999999995 1323.01 2225.9999999999995 1322.97 2225.9899999999993C1322.94 2225.9899999999993 1322.92 2225.9899999999993 1322.89 2225.979999999999C1322.88 2225.979999999999 1322.8700000000001 2225.979999999999 1322.8600000000001 2225.979999999999C1322.65 2225.939999999999 1322.46 2225.8399999999992 1322.3000000000002 2225.699999999999L1322.3000000000002 2225.709999999999L1312.41 2216.599999999999C1312.17 2216.389999999999 1312.01 2216.079999999999 1312.01 2215.729999999999L1312 2215.729999999999L1312 2208.189999999999C1312 2207.5299999999993 1312.53 2206.999999999999 1313.19 2206.999999999999L1320.71 2206.999999999999C1321.04 2206.999999999999 1321.3400000000001 2207.139999999999 1321.55 2207.349999999999L1330.6399999999999 2216.049999999999C1330.81 2216.2099999999987 1330.9299999999998 2216.4199999999987 1330.9799999999998 2216.659999999999ZM1315.17 2208.59C1314.29 2208.59 1313.5900000000001 2209.29 1313.5900000000001 2210.17C1313.5900000000001 2211.04 1314.2900000000002 2211.75 1315.17 2211.75C1316.04 2211.75 1316.75 2211.04 1316.75 2210.17C1316.75 2209.29 1316.04 2208.59 1315.17 2208.59Z " fill="#ffffff" fill-opacity="1" transform="matrix(1,0,0,1,-1312,-2207)"></path></svg>