<svg id="SvgjsSvg1035" xmlns="http://www.w3.org/2000/svg" version="1.1" xmlns:xlink="http://www.w3.org/1999/xlink" xmlns:svgjs="http://svgjs.com/svgjs" width="45" height="44" viewBox="0 0 45 44"><title>Shape 8</title><desc>Created with Avocode.</desc><defs id="SvgjsDefs1036"></defs><path id="SvgjsPath1037" d="M556.364 1024C556.364 1036.15 546.595 1046 534.546 1046C522.4960000000001 1046 512.7270000000001 1036.15 512.7270000000001 1024C512.7270000000001 1011.85 522.4960000000001 1002 534.546 1002C546.595 1002 556.364 1011.85 556.364 1024ZM532.273 1028.89C534.447 1030.15 537.226 1029.4 538.482 1027.21L542.273 1011.4200000000001L530.609 1022.6200000000001C529.354 1024.8200000000002 530.099 1027.6200000000001 532.273 1028.89ZM532.077 1023.75L539.051 1017.05L536.784 1026.49C535.985 1027.65 534.417 1028.02 533.182 1027.3C531.947 1026.58 531.48 1025.03 532.077 1023.75ZM554.522 1024.92L550.909 1024.92L550.909 1023.08L554.502 1023.08C554.2829999999999 1018.21 552.3599999999999 1013.7900000000001 549.304 1010.4200000000001L546.759 1012.98L545.474 1011.6800000000001L548.017 1009.1200000000001C544.6700000000001 1006.0400000000001 540.292 1004.0800000000002 535.455 1003.8600000000001L535.455 1007.5000000000001L533.6360000000001 1007.5000000000001L533.6360000000001 1003.8600000000001C528.7990000000001 1004.0800000000002 524.421 1006.0400000000001 521.0740000000001 1009.1200000000001L523.6170000000001 1011.6800000000001L522.3320000000001 1012.98L519.7870000000001 1010.4200000000001C516.7310000000001 1013.7900000000001 514.8080000000001 1018.21 514.5890000000002 1023.08L518.1820000000001 1023.08L518.1820000000001 1024.92L514.5690000000001 1024.92C515.0440000000001 1035.63 523.8050000000001 1044.17 534.546 1044.17C545.2860000000001 1044.17 554.047 1035.63 554.522 1024.92Z " fill="#fff" fill-opacity="1" transform="matrix(1,0,0,1,-512,-1002)"></path></svg>