<svg id="SvgjsSvg1053" xmlns="http://www.w3.org/2000/svg" version="1.1" xmlns:xlink="http://www.w3.org/1999/xlink" xmlns:svgjs="http://svgjs.com/svgjs" width="32" height="32" viewBox="0 0 32 32"><title>Shape 14</title><desc>Created with Avocode.</desc><defs id="SvgjsDefs1054"></defs><path id="SvgjsPath1055" d="M581.999 2565.45L581.999 2565.45C581.999 2566.31 581.328 2567 580.499 2567L551.501 2567C550.672 2567 550.001 2566.31 550.001 2565.45L550.001 2565.45L550 2565.45C550 2565.45 550 2559.7999999999997 553.994 2557.75C556.5210000000001 2556.45 555.548 2557.51 558.65 2556.18C561.7529999999999 2554.85 562.4879999999999 2554.39 562.4879999999999 2554.39L562.5169999999999 2551.33C562.5169999999999 2551.33 561.3549999999999 2550.42 560.9939999999999 2547.54C560.2669999999999 2547.75 560.0269999999999 2546.66 559.9839999999999 2545.96C559.9449999999999 2545.28 559.5629999999999 2543.17 560.4499999999999 2543.36C560.2689999999999 2541.9500000000003 560.1389999999999 2540.6800000000003 560.2019999999999 2540.01C560.4249999999998 2537.65 562.6289999999999 2535.1800000000003 566.0239999999999 2535C570.0169999999999 2535.18 571.5989999999999 2537.65 571.8199999999999 2540.01C571.885 2540.6800000000003 571.7429999999999 2541.9500000000003 571.5609999999999 2543.36C572.449 2543.17 572.0629999999999 2545.28 572.0199999999999 2545.9500000000003C571.9809999999999 2546.65 571.7349999999999 2547.7500000000005 571.0099999999999 2547.53C570.6469999999998 2550.4100000000003 569.4849999999999 2551.32 569.4849999999999 2551.32L569.512 2554.36C569.512 2554.36 570.247 2554.79 573.3499999999999 2556.1200000000003C576.4519999999999 2557.4500000000003 575.4789999999999 2556.4600000000005 578.0059999999999 2557.7500000000005C581.9999999999999 2559.8000000000006 581.9999999999999 2565.4500000000003 581.9999999999999 2565.4500000000003Z " fill="#e3e9ea" fill-opacity="1" transform="matrix(1,0,0,1,-550,-2535)"></path></svg>